<svg xmlns="http://www.w3.org/2000/svg" xml:space="preserve" id="Layer_1" x="0" y="0" style="enable-background:new 0 0 122.88 99.56" version="1.1" viewBox="0 0 122.88 99.56"><style id="style15" type="text/css">.st0{fill:#393939}.st1{fill-rule:evenodd;clip-rule:evenodd;fill:#38ae48}</style><path id="path17" d="M73.1 0c6.73 0 13.16 1.34 19.03 3.78a49.802 49.802 0 0 1 16.16 10.81 49.685 49.685 0 0 1 10.81 16.17c2.43 5.87 3.78 12.3 3.78 19.03s-1.34 13.16-3.78 19.03a49.696 49.696 0 0 1-10.81 16.16 49.685 49.685 0 0 1-16.17 10.81 49.656 49.656 0 0 1-19.03 3.78 49.65 49.65 0 0 1-19.03-3.77A49.802 49.802 0 0 1 37.9 84.99l-.01-.01A49.802 49.802 0 0 1 25.08 63c1.04.1 2.1.15 3.17.15 2.03 0 4.01-.18 5.94-.53.32.96.67 1.91 1.05 2.84 2.07 5 5.11 9.51 8.9 13.29 3.78 3.78 8.29 6.82 13.29 8.9 4.81 1.99 10.11 3.1 15.66 3.1 5.56 0 10.85-1.1 15.66-3.1 5-2.07 9.51-5.11 13.29-8.9 3.78-3.78 6.82-8.29 8.9-13.29 1.99-4.81 3.1-10.11 3.1-15.66 0-5.56-1.1-10.85-3.1-15.66-2.07-5-5.11-9.51-8.9-13.29a41.168 41.168 0 0 0-13.29-8.9 40.915 40.915 0 0 0-15.66-3.1c-5.56 0-10.85 1.1-15.66 3.1-.43.18-.86.37-1.28.56a33.24 33.24 0 0 0-5.89-6.95c1.24-.64 2.51-1.23 3.8-1.77A49.378 49.378 0 0 1 73.1 0Zm-5.72 26.12c0-1.22.5-2.33 1.3-3.13.8-.8 1.9-1.3 3.12-1.3 1.22 0 2.33.5 3.13 1.3.8.8 1.3 1.91 1.3 3.13v23.22l17.35 10.29a4.45 4.45 0 0 1 2.03 2.7c.28 1.09.15 2.29-.47 3.34a4.45 4.45 0 0 1-2.7 2.03c-1.09.28-2.29.15-3.33-.47L69.65 55.71a4.402 4.402 0 0 1-2.27-3.85Z" class="st0" style="fill:#bcbcbc;fill-opacity:1"/><path id="path19" d="M26.99 2.56c14.91 0 26.99 12.08 26.99 26.99 0 14.91-12.08 26.99-26.99 26.99C12.08 56.54 0 44.45 0 29.55 0 14.64 12.08 2.56 26.99 2.56ZM15.05 30.27c.36-2.1 2.76-3.27 4.65-2.13.17.1.34.22.49.36l.02.01c.85.81 1.8 1.66 2.74 2.5l.81.73 9.59-10.06c.57-.6.99-.99 1.85-1.18 2.94-.65 5.01 2.95 2.93 5.15L26.17 38.19c-1.13 1.2-3.14 1.31-4.35.16-.69-.64-1.45-1.3-2.21-1.96-1.32-1.15-2.67-2.32-3.77-3.48-.66-.66-.95-1.74-.79-2.64z" class="st1"/></svg>