<?xml version="1.0" encoding="UTF-8" standalone="no"?>
<svg
   version="1.1"
   id="Layer_1"
   x="0px"
   y="0px"
   viewBox="0 0 122.88 99.56"
   style="enable-background:new 0 0 122.88 99.56"
   xml:space="preserve"
   sodipodi:docname="on-time-icon.svg"
   inkscape:version="1.2.2 (732a01da63, 2022-12-09)"
   xmlns:inkscape="http://www.inkscape.org/namespaces/inkscape"
   xmlns:sodipodi="http://sodipodi.sourceforge.net/DTD/sodipodi-0.dtd"
   xmlns="http://www.w3.org/2000/svg"
   xmlns:svg="http://www.w3.org/2000/svg"><defs
     id="defs26" /><sodipodi:namedview
     id="namedview24"
     pagecolor="#505050"
     bordercolor="#ffffff"
     borderopacity="1"
     inkscape:showpageshadow="0"
     inkscape:pageopacity="0"
     inkscape:pagecheckerboard="1"
     inkscape:deskcolor="#505050"
     showgrid="false"
     inkscape:zoom="3.4699333"
     inkscape:cx="34.870988"
     inkscape:cy="75.07349"
     inkscape:window-width="1346"
     inkscape:window-height="1230"
     inkscape:window-x="965"
     inkscape:window-y="123"
     inkscape:window-maximized="0"
     inkscape:current-layer="Layer_1" /><style
     type="text/css"
     id="style15">.st0{fill:#393939;} .st1{fill-rule:evenodd;clip-rule:evenodd;fill:#38AE48;}</style><path
     class="st0"
     d="m 73.1,0 c 6.73,0 13.16,1.34 19.03,3.78 6.09,2.52 11.57,6.22 16.16,10.81 4.59,4.58 8.28,10.06 10.81,16.17 2.43,5.87 3.78,12.3 3.78,19.03 0,6.73 -1.34,13.16 -3.78,19.03 -2.52,6.09 -6.22,11.58 -10.81,16.16 -4.58,4.59 -10.06,8.28 -16.17,10.81 -5.87,2.43 -12.3,3.78 -19.03,3.78 -6.73,0 -13.16,-1.34 -19.03,-3.77 C 47.97,93.28 42.49,89.58 37.9,84.99 L 37.89,84.98 C 33.3,80.39 29.6,74.91 27.08,68.82 26.3,66.93 25.63,64.99 25.08,63 c 1.04,0.1 2.1,0.15 3.17,0.15 2.03,0 4.01,-0.18 5.94,-0.53 0.32,0.96 0.67,1.91 1.05,2.84 2.07,5 5.11,9.51 8.9,13.29 3.78,3.78 8.29,6.82 13.29,8.9 4.81,1.99 10.11,3.1 15.66,3.1 5.56,0 10.85,-1.1 15.66,-3.1 5,-2.07 9.51,-5.11 13.29,-8.9 3.78,-3.78 6.82,-8.29 8.9,-13.29 1.99,-4.81 3.1,-10.11 3.1,-15.66 0,-5.56 -1.1,-10.85 -3.1,-15.66 -2.07,-5 -5.11,-9.51 -8.9,-13.29 -3.78,-3.78 -8.29,-6.82 -13.29,-8.9 -4.81,-1.99 -10.11,-3.1 -15.66,-3.1 -5.56,0 -10.85,1.1 -15.66,3.1 C 57,12.13 56.57,12.32 56.15,12.51 54.51,9.93 52.53,7.59 50.26,5.56 51.5,4.92 52.77,4.33 54.06,3.79 59.94,1.34 66.37,0 73.1,0 Z m -5.72,26.12 c 0,-1.22 0.5,-2.33 1.3,-3.13 0.8,-0.8 1.9,-1.3 3.12,-1.3 1.22,0 2.33,0.5 3.13,1.3 0.8,0.8 1.3,1.91 1.3,3.13 v 23.22 l 17.35,10.29 c 1.04,0.62 1.74,1.6 2.03,2.7 0.28,1.09 0.15,2.29 -0.47,3.34 -0.62,1.04 -1.6,1.74 -2.7,2.03 -1.09,0.28 -2.29,0.15 -3.33,-0.47 L 69.65,55.71 C 68.98,55.34 68.43,54.8 68.03,54.16 67.62,53.49 67.38,52.7 67.38,51.86 Z"
     id="path17"
     style="fill:#bcbcbc;fill-opacity:1" /><path
     class="st1"
     d="m 26.99,2.56 c 14.91,0 26.99,12.08 26.99,26.99 0,14.91 -12.08,26.99 -26.99,26.99 C 12.08,56.54 0,44.45 0,29.55 0,14.64 12.08,2.56 26.99,2.56 Z M 15.05,30.27 c 0.36,-2.1 2.76,-3.27 4.65,-2.13 0.17,0.1 0.34,0.22 0.49,0.36 l 0.02,0.01 c 0.85,0.81 1.8,1.66 2.74,2.5 l 0.81,0.73 9.59,-10.06 c 0.57,-0.6 0.99,-0.99 1.85,-1.18 2.94,-0.65 5.01,2.95 2.93,5.15 L 26.17,38.19 c -1.13,1.2 -3.14,1.31 -4.35,0.16 -0.69,-0.64 -1.45,-1.3 -2.21,-1.96 -1.32,-1.15 -2.67,-2.32 -3.77,-3.48 -0.66,-0.66 -0.95,-1.74 -0.79,-2.64 z"
     id="path19" /></svg>
